<svg width="24" height="25" viewBox="0 0 24 25" fill="none" xmlns="http://www.w3.org/2000/svg">
<g clip-path="url(#clip0_121_4)">
<path d="M23.848 12.3358C23.633 12.0428 18.524 5.15479 12 5.15479C5.47596 5.15479 0.365965 12.0428 0.151965 12.3348C0.052746 12.4705 -0.000732422 12.6342 -0.000732422 12.8023C-0.000732422 12.9704 0.052746 13.1341 0.151965 13.2698C0.365965 13.5628 5.47496 20.4508 12 20.4508C18.524 20.4508 23.633 13.5628 23.848 13.2708C23.9473 13.1352 24.0009 12.9714 24.0009 12.8033C24.0009 12.6352 23.9473 12.4714 23.848 12.3358ZM12 18.8688C7.19396 18.8688 3.03096 14.2968 1.79997 12.8028C3.02997 11.3058 7.18296 6.73579 12 6.73579C16.806 6.73579 20.968 11.3068 22.2 12.8028C20.97 14.2978 16.816 18.8688 12 18.8688Z" fill="#4CB8E9"/>
<path d="M12.0001 8.05579C10.7416 8.05738 9.53506 8.55802 8.64517 9.44791C7.75528 10.3378 7.25464 11.5443 7.25305 12.8028C7.25464 14.0613 7.75528 15.2678 8.64517 16.1577C9.53506 17.0476 10.7416 17.5482 12.0001 17.5498C13.2585 17.5482 14.465 17.0476 15.3549 16.1577C16.2448 15.2678 16.7455 14.0613 16.7471 12.8028C16.7455 11.5443 16.2448 10.3378 15.3549 9.44791C14.465 8.55802 13.2585 8.05738 12.0001 8.05579ZM12.0001 15.9678C11.1609 15.967 10.3563 15.6333 9.76294 15.0399C9.16956 14.4465 8.83585 13.642 8.83505 12.8028C8.83585 11.9636 9.16956 11.1591 9.76294 10.5657C10.3563 9.9723 11.1609 9.63859 12.0001 9.63779C12.8392 9.63859 13.6438 9.9723 14.2372 10.5657C14.8305 11.1591 15.1643 11.9636 15.1651 12.8028C15.1643 13.642 14.8305 14.4465 14.2372 15.0399C13.6438 15.6333 12.8392 15.967 12.0001 15.9678Z" fill="#4CB8E9"/>
</g>
<defs>
<clipPath id="clip0_121_4">
<rect width="24" height="24" fill="white" transform="translate(0 0.802795)"/>
</clipPath>
</defs>
</svg>
